<svg id="visual" viewBox="0 0 1920 1080" width="1920" height="1080" xmlns="http://www.w3.org/2000/svg" xmlns:xlink="http://www.w3.org/1999/xlink" version="1.1"><rect x="0" y="0" width="1920" height="1080" fill="#001220"></rect><path d="M0 796L45.7 778C91.3 760 182.7 724 274.2 703.2C365.7 682.3 457.3 676.7 548.8 681.8C640.3 687 731.7 703 823 715.7C914.3 728.3 1005.7 737.7 1097 740.2C1188.3 742.7 1279.7 738.3 1371.2 748.5C1462.7 758.7 1554.3 783.3 1645.8 774.3C1737.3 765.3 1828.7 722.7 1874.3 701.3L1920 680L1920 1081L1874.3 1081C1828.7 1081 1737.3 1081 1645.8 1081C1554.3 1081 1462.7 1081 1371.2 1081C1279.7 1081 1188.3 1081 1097 1081C1005.7 1081 914.3 1081 823 1081C731.7 1081 640.3 1081 548.8 1081C457.3 1081 365.7 1081 274.2 1081C182.7 1081 91.3 1081 45.7 1081L0 1081Z" fill="#36aebe"></path><path d="M0 816L45.7 813.7C91.3 811.3 182.7 806.7 274.2 789.3C365.7 772 457.3 742 548.8 740.8C640.3 739.7 731.7 767.3 823 769.2C914.3 771 1005.7 747 1097 733.7C1188.3 720.3 1279.7 717.7 1371.2 721.3C1462.7 725 1554.3 735 1645.8 741.2C1737.3 747.3 1828.7 749.7 1874.3 750.8L1920 752L1920 1081L1874.3 1081C1828.7 1081 1737.3 1081 1645.8 1081C1554.3 1081 1462.7 1081 1371.2 1081C1279.7 1081 1188.3 1081 1097 1081C1005.7 1081 914.3 1081 823 1081C731.7 1081 640.3 1081 548.8 1081C457.3 1081 365.7 1081 274.2 1081C182.7 1081 91.3 1081 45.7 1081L0 1081Z" fill="#0099cf"></path><path d="M0 823L45.7 824C91.3 825 182.7 827 274.2 825.7C365.7 824.3 457.3 819.7 548.8 826.7C640.3 833.7 731.7 852.3 823 869.7C914.3 887 1005.7 903 1097 909.7C1188.3 916.3 1279.7 913.7 1371.2 902.3C1462.7 891 1554.3 871 1645.8 851.2C1737.3 831.3 1828.7 811.7 1874.3 801.8L1920 792L1920 1081L1874.3 1081C1828.7 1081 1737.3 1081 1645.8 1081C1554.3 1081 1462.7 1081 1371.2 1081C1279.7 1081 1188.3 1081 1097 1081C1005.7 1081 914.3 1081 823 1081C731.7 1081 640.3 1081 548.8 1081C457.3 1081 365.7 1081 274.2 1081C182.7 1081 91.3 1081 45.7 1081L0 1081Z" fill="#007dd5"></path><path d="M0 962L45.7 961C91.3 960 182.7 958 274.2 958.7C365.7 959.3 457.3 962.7 548.8 950.7C640.3 938.7 731.7 911.3 823 897.8C914.3 884.3 1005.7 884.7 1097 891.8C1188.3 899 1279.7 913 1371.2 922.8C1462.7 932.7 1554.3 938.3 1645.8 929.8C1737.3 921.3 1828.7 898.7 1874.3 887.3L1920 876L1920 1081L1874.3 1081C1828.7 1081 1737.3 1081 1645.8 1081C1554.3 1081 1462.7 1081 1371.2 1081C1279.7 1081 1188.3 1081 1097 1081C1005.7 1081 914.3 1081 823 1081C731.7 1081 640.3 1081 548.8 1081C457.3 1081 365.7 1081 274.2 1081C182.7 1081 91.3 1081 45.7 1081L0 1081Z" fill="#005acf"></path><path d="M0 969L45.7 977.3C91.3 985.7 182.7 1002.3 274.2 1002.7C365.7 1003 457.3 987 548.8 976.2C640.3 965.3 731.7 959.7 823 964.7C914.3 969.7 1005.7 985.3 1097 986C1188.3 986.7 1279.7 972.3 1371.2 973C1462.7 973.7 1554.3 989.3 1645.8 997.2C1737.3 1005 1828.7 1005 1874.3 1005L1920 1005L1920 1081L1874.3 1081C1828.7 1081 1737.3 1081 1645.8 1081C1554.3 1081 1462.7 1081 1371.2 1081C1279.7 1081 1188.3 1081 1097 1081C1005.7 1081 914.3 1081 823 1081C731.7 1081 640.3 1081 548.8 1081C457.3 1081 365.7 1081 274.2 1081C182.7 1081 91.3 1081 45.7 1081L0 1081Z" fill="#2a2ebd"></path></svg>